<svg width="34" height="23" viewBox="0 0 34 23" fill="none" xmlns="http://www.w3.org/2000/svg">
<path d="M0 1.5C0 0.671573 0.671573 0 1.5 0H32.5C33.3284 0 34 0.671573 34 1.5C34 2.32843 33.3284 3 32.5 3H1.5C0.671572 3 0 2.32843 0 1.5Z" fill="#FFC725"/>
<path d="M0 11.5C0 10.6716 0.671573 10 1.5 10H32.5C33.3284 10 34 10.6716 34 11.5C34 12.3284 33.3284 13 32.5 13H1.5C0.671572 13 0 12.3284 0 11.5Z" fill="#FFC725"/>
<path d="M0 21.5C0 20.6716 0.671573 20 1.5 20H32.5C33.3284 20 34 20.6716 34 21.5C34 22.3284 33.3284 23 32.5 23H1.5C0.671572 23 0 22.3284 0 21.5Z" fill="#FFC725"/>
</svg>
