<svg width="30" height="25" viewBox="0 0 30 25" fill="none" xmlns="http://www.w3.org/2000/svg">
<path d="M26.8125 14.5859L29.1992 4.02344C29.3516 3.26172 28.793 2.5 27.9805 2.5H8.07422L7.61719 0.265625C7.46484 -0.292969 6.95703 -0.75 6.39844 -0.75H1.21875C0.507812 -0.75 0 -0.191406 0 0.46875V1.28125C0 1.99219 0.507812 2.5 1.21875 2.5H4.72266L8.32812 19.9688C7.46484 20.4766 6.90625 21.3906 6.90625 22.4062C6.90625 23.9805 8.17578 25.25 9.75 25.25C11.2734 25.25 12.5938 23.9805 12.5938 22.4062C12.5938 21.6445 12.2383 20.9336 11.7305 20.375H22.3438C21.8359 20.9336 21.5312 21.6445 21.5312 22.4062C21.5312 23.9805 22.8008 25.25 24.375 25.25C25.8984 25.25 27.2188 23.9805 27.2188 22.4062C27.2188 21.2891 26.5586 20.3242 25.5938 19.8672L25.8477 18.6484C26.0508 17.8867 25.4414 17.125 24.6797 17.125H11.0703L10.7148 15.5H25.5938C26.1523 15.5 26.6602 15.1445 26.8125 14.5859Z" fill="#FFC725"/>
</svg>
